# xmcd
#
# Track frame offsets:
#	150
#	35965
#	66549
#	92098
#	124434
#	143380
#	169558
#	182150
#	205795
#	236931
#	260412
#
# Disc length: 3806 seconds
#
# Revision: 0
# Processed by: cddbd v1.4PL0 Copyright (c) Steve Scherf et al.
# Submitted via: EasyCDDAExtractor 4.6.0.1
#
DISCID=a60edc0b
DTITLE=Lightning Hopkins - Blues Summit
DYEAR=1900
DGENRE=Blues
TTITLE0=Aint Nothing Like Whiskey
TTITLE1=Penitentiary Blues
TTITLE2=If You Steal y Chickens, You Can't Make 'Em Lay
TTITLE3=First Meeting
TTITLE4=How Long Have It Been Since You Been Home?
TTITLE5=Wemon From Coast To Coast
TTITLE6=Right On That Shore
TTITLE7=Early Morning Blues (aka Chain Gang Blues)
TTITLE8=Blues For Gamblers
TTITLE9=I've Been Buked And I've Been Scorned
TTITLE10=Brand New Car (aka New Car Blues)
EXTD=Lightning Hopkins W/ Sonny Terry and Brownie McGhee
EXTT0=
EXTT1=
EXTT2=
EXTT3=
EXTT4=
EXTT5=
EXTT6=
EXTT7=
EXTT8=
EXTT9=
EXTT10=
PLAYORDER=
